<?xml version="1.0" standalone="no"?>
<!DOCTYPE svg PUBLIC "-//W3C//DTD SVG 20010904//EN"
 "http://www.w3.org/TR/2001/REC-SVG-20010904/DTD/svg10.dtd">
<svg version="1.0" xmlns="http://www.w3.org/2000/svg"
 width="508.000000pt" height="508.000000pt" viewBox="0 0 508.000000 508.000000"
 preserveAspectRatio="xMidYMid meet">

<g transform="translate(0.000000,508.000000) scale(0.100000,-0.100000)"
fill="#000000" stroke="none">
<path d="M780 5070 c-373 -4 -430 -7 -469 -23 -133 -53 -238 -159 -279 -283
-19 -57 -20 -106 -25 -1561 l-5 -1503 83 0 c188 0 401 59 546 152 170 109 294
269 358 463 58 175 61 221 61 960 0 369 3 686 6 706 l6 35 1162 -3 c718 -2
1185 -8 1225 -14 87 -14 168 -57 250 -134 137 -130 202 -267 209 -445 5 -125
-12 -200 -66 -305 -49 -94 -173 -218 -262 -263 -134 -67 -107 -65 -856 -71
l-681 -6 -86 -43 c-177 -87 -240 -179 -322 -466 -68 -237 -122 -353 -235 -506
-190 -255 -456 -431 -760 -502 -47 -11 -120 -29 -163 -39 -176 -42 -313 -147
-394 -304 -55 -106 -73 -181 -73 -302 0 -176 53 -307 175 -428 122 -123 259
-179 435 -179 170 1 308 55 430 171 120 113 173 233 196 447 33 296 166 566
372 756 147 136 351 256 502 296 95 25 243 24 295 -1 33 -17 149 -161 680
-842 l640 -823 668 0 c521 0 667 3 661 12 -4 7 -172 219 -374 473 -603 758
-985 1245 -992 1266 -9 22 -5 25 117 72 461 177 810 517 990 962 235 582 97
1269 -349 1733 -309 321 -689 501 -1143 541 -124 11 -1683 12 -2533 1z"/>
</g>
</svg>
